<mxfile host="app.diagrams.net" agent="Mozilla/5.0 (Windows NT 10.0; Win64; x64) AppleWebKit/537.36 (KHTML, like Gecko) Chrome/137.0.0.0 Safari/537.36" version="27.1.6">
  <diagram name="第 1 页" id="AHN42hMT1hDx04W8Br4w">
    <mxGraphModel dx="853" dy="1136" grid="1" gridSize="10" guides="1" tooltips="1" connect="1" arrows="1" fold="1" page="1" pageScale="1" pageWidth="827" pageHeight="1169" math="0" shadow="0">
      <root>
        <mxCell id="0" />
        <mxCell id="1" parent="0" />
        <mxCell id="UjW9vtyildVAnrhpUJAI-7" value="" style="edgeStyle=orthogonalEdgeStyle;rounded=0;orthogonalLoop=1;jettySize=auto;html=1;" edge="1" parent="1" source="UjW9vtyildVAnrhpUJAI-1" target="UjW9vtyildVAnrhpUJAI-2">
          <mxGeometry relative="1" as="geometry" />
        </mxCell>
        <mxCell id="UjW9vtyildVAnrhpUJAI-1" value="&amp;nbsp;Load data&amp;nbsp;&amp;nbsp;" style="rounded=1;whiteSpace=wrap;html=1;" vertex="1" parent="1">
          <mxGeometry x="360" y="80" width="120" height="60" as="geometry" />
        </mxCell>
        <mxCell id="UjW9vtyildVAnrhpUJAI-14" value="" style="edgeStyle=orthogonalEdgeStyle;rounded=0;orthogonalLoop=1;jettySize=auto;html=1;" edge="1" parent="1" source="UjW9vtyildVAnrhpUJAI-2" target="UjW9vtyildVAnrhpUJAI-9">
          <mxGeometry relative="1" as="geometry" />
        </mxCell>
        <mxCell id="UjW9vtyildVAnrhpUJAI-2" value="Standardize features&amp;nbsp; &amp;nbsp;" style="rounded=1;whiteSpace=wrap;html=1;" vertex="1" parent="1">
          <mxGeometry x="310" y="190" width="220" height="50" as="geometry" />
        </mxCell>
        <mxCell id="UjW9vtyildVAnrhpUJAI-15" value="" style="edgeStyle=orthogonalEdgeStyle;rounded=0;orthogonalLoop=1;jettySize=auto;html=1;" edge="1" parent="1" source="UjW9vtyildVAnrhpUJAI-9" target="UjW9vtyildVAnrhpUJAI-10">
          <mxGeometry relative="1" as="geometry" />
        </mxCell>
        <mxCell id="UjW9vtyildVAnrhpUJAI-9" value="Train Isolation Forest model&amp;nbsp;" style="rounded=1;whiteSpace=wrap;html=1;" vertex="1" parent="1">
          <mxGeometry x="310" y="280" width="220" height="50" as="geometry" />
        </mxCell>
        <mxCell id="UjW9vtyildVAnrhpUJAI-16" value="" style="edgeStyle=orthogonalEdgeStyle;rounded=0;orthogonalLoop=1;jettySize=auto;html=1;" edge="1" parent="1" source="UjW9vtyildVAnrhpUJAI-10" target="UjW9vtyildVAnrhpUJAI-11">
          <mxGeometry relative="1" as="geometry" />
        </mxCell>
        <mxCell id="UjW9vtyildVAnrhpUJAI-10" value="&amp;nbsp;Compute anomaly scores&amp;nbsp;&amp;nbsp;" style="rounded=1;whiteSpace=wrap;html=1;" vertex="1" parent="1">
          <mxGeometry x="310" y="370" width="220" height="50" as="geometry" />
        </mxCell>
        <mxCell id="UjW9vtyildVAnrhpUJAI-17" value="" style="edgeStyle=orthogonalEdgeStyle;rounded=0;orthogonalLoop=1;jettySize=auto;html=1;" edge="1" parent="1" source="UjW9vtyildVAnrhpUJAI-11" target="UjW9vtyildVAnrhpUJAI-13">
          <mxGeometry relative="1" as="geometry" />
        </mxCell>
        <mxCell id="UjW9vtyildVAnrhpUJAI-11" value="Compute IQR, Quantile" style="rounded=1;whiteSpace=wrap;html=1;" vertex="1" parent="1">
          <mxGeometry x="274.5" y="450" width="291" height="60" as="geometry" />
        </mxCell>
        <mxCell id="UjW9vtyildVAnrhpUJAI-30" value="" style="edgeStyle=orthogonalEdgeStyle;rounded=0;orthogonalLoop=1;jettySize=auto;html=1;" edge="1" parent="1" source="UjW9vtyildVAnrhpUJAI-12" target="UjW9vtyildVAnrhpUJAI-29">
          <mxGeometry relative="1" as="geometry" />
        </mxCell>
        <mxCell id="UjW9vtyildVAnrhpUJAI-12" value="&amp;nbsp;Mark samples with score &amp;lt; threshold&amp;nbsp; as anomalies (is_outlier)&amp;nbsp;" style="rounded=1;whiteSpace=wrap;html=1;" vertex="1" parent="1">
          <mxGeometry x="290" y="760" width="291" height="60" as="geometry" />
        </mxCell>
        <mxCell id="UjW9vtyildVAnrhpUJAI-18" style="edgeStyle=orthogonalEdgeStyle;rounded=0;orthogonalLoop=1;jettySize=auto;html=1;exitX=1;exitY=0.5;exitDx=0;exitDy=0;" edge="1" parent="1" source="UjW9vtyildVAnrhpUJAI-13">
          <mxGeometry relative="1" as="geometry">
            <mxPoint x="565" y="640" as="targetPoint" />
            <mxPoint x="515" y="585" as="sourcePoint" />
          </mxGeometry>
        </mxCell>
        <mxCell id="UjW9vtyildVAnrhpUJAI-19" style="edgeStyle=orthogonalEdgeStyle;rounded=0;orthogonalLoop=1;jettySize=auto;html=1;" edge="1" parent="1" source="UjW9vtyildVAnrhpUJAI-13">
          <mxGeometry relative="1" as="geometry">
            <mxPoint x="290" y="640" as="targetPoint" />
          </mxGeometry>
        </mxCell>
        <mxCell id="UjW9vtyildVAnrhpUJAI-13" value="IQR&amp;lt;Quantitle&amp;nbsp;" style="rhombus;whiteSpace=wrap;html=1;" vertex="1" parent="1">
          <mxGeometry x="350" y="545" width="140" height="80" as="geometry" />
        </mxCell>
        <mxCell id="UjW9vtyildVAnrhpUJAI-27" style="edgeStyle=orthogonalEdgeStyle;rounded=0;orthogonalLoop=1;jettySize=auto;html=1;entryX=0.5;entryY=0;entryDx=0;entryDy=0;" edge="1" parent="1" source="UjW9vtyildVAnrhpUJAI-20" target="UjW9vtyildVAnrhpUJAI-12">
          <mxGeometry relative="1" as="geometry" />
        </mxCell>
        <mxCell id="UjW9vtyildVAnrhpUJAI-20" value="Choose IQR as final threshold" style="rounded=1;whiteSpace=wrap;html=1;" vertex="1" parent="1">
          <mxGeometry x="230" y="640" width="120" height="60" as="geometry" />
        </mxCell>
        <mxCell id="UjW9vtyildVAnrhpUJAI-28" style="edgeStyle=orthogonalEdgeStyle;rounded=0;orthogonalLoop=1;jettySize=auto;html=1;" edge="1" parent="1" source="UjW9vtyildVAnrhpUJAI-21" target="UjW9vtyildVAnrhpUJAI-12">
          <mxGeometry relative="1" as="geometry">
            <Array as="points">
              <mxPoint x="560" y="730" />
              <mxPoint x="436" y="730" />
            </Array>
          </mxGeometry>
        </mxCell>
        <mxCell id="UjW9vtyildVAnrhpUJAI-21" value="Choose Quantitle as final threshold" style="rounded=1;whiteSpace=wrap;html=1;" vertex="1" parent="1">
          <mxGeometry x="490" y="640" width="120" height="60" as="geometry" />
        </mxCell>
        <mxCell id="UjW9vtyildVAnrhpUJAI-22" value="YES" style="text;html=1;align=center;verticalAlign=middle;whiteSpace=wrap;rounded=0;" vertex="1" parent="1">
          <mxGeometry x="260" y="555" width="60" height="30" as="geometry" />
        </mxCell>
        <mxCell id="UjW9vtyildVAnrhpUJAI-23" value="NO" style="text;html=1;align=center;verticalAlign=middle;whiteSpace=wrap;rounded=0;" vertex="1" parent="1">
          <mxGeometry x="505.5" y="555" width="60" height="30" as="geometry" />
        </mxCell>
        <mxCell id="UjW9vtyildVAnrhpUJAI-29" value="save&amp;nbsp; data&amp;nbsp;&amp;nbsp;" style="rounded=1;whiteSpace=wrap;html=1;" vertex="1" parent="1">
          <mxGeometry x="375.5" y="860" width="120" height="60" as="geometry" />
        </mxCell>
      </root>
    </mxGraphModel>
  </diagram>
</mxfile>
